<svg width="18" height="22" viewBox="0 0 18 22" fill="none" xmlns="http://www.w3.org/2000/svg">
<path fill-rule="evenodd" clip-rule="evenodd" d="M7 4.75C7 4.33579 7.33579 4 7.75 4H11.75C12.1642 4 12.5 4.33579 12.5 4.75C12.5 5.16421 12.1642 5.5 11.75 5.5H7.75C7.33579 5.5 7 5.16421 7 4.75Z" fill="#8B98A6"/>
<path fill-rule="evenodd" clip-rule="evenodd" d="M7 18.75C7 18.3358 7.33579 18 7.75 18H11.75C12.1642 18 12.5 18.3358 12.5 18.75C12.5 19.1642 12.1642 19.5 11.75 19.5H7.75C7.33579 19.5 7 19.1642 7 18.75Z" fill="#8B98A6"/>
<path fill-rule="evenodd" clip-rule="evenodd" d="M7 11.75C7 11.3358 7.33579 11 7.75 11H11.75C12.1642 11 12.5 11.3358 12.5 11.75C12.5 12.1642 12.1642 12.5 11.75 12.5H7.75C7.33579 12.5 7 12.1642 7 11.75Z" fill="#8B98A6"/>
<path fill-rule="evenodd" clip-rule="evenodd" d="M7 1.75C7 1.33579 7.33579 1 7.75 1H16.75C17.1642 1 17.5 1.33579 17.5 1.75C17.5 2.16421 17.1642 2.5 16.75 2.5H7.75C7.33579 2.5 7 2.16421 7 1.75Z" fill="#8B98A6"/>
<path fill-rule="evenodd" clip-rule="evenodd" d="M7 8.75C7 8.33579 7.33579 8 7.75 8H16.75C17.1642 8 17.5 8.33579 17.5 8.75C17.5 9.16421 17.1642 9.5 16.75 9.5H7.75C7.33579 9.5 7 9.16421 7 8.75Z" fill="#8B98A6"/>
<path fill-rule="evenodd" clip-rule="evenodd" d="M7 15.75C7 15.3358 7.33579 15 7.75 15H16.75C17.1642 15 17.5 15.3358 17.5 15.75C17.5 16.1642 17.1642 16.5 16.75 16.5H7.75C7.33579 16.5 7 16.1642 7 15.75Z" fill="#8B98A6"/>
<path fill-rule="evenodd" clip-rule="evenodd" d="M3.25 0C1.45507 0 0 1.45507 0 3.25C0 5.04493 1.45507 6.5 3.25 6.5C5.04493 6.5 6.5 5.04493 6.5 3.25C6.5 1.45507 5.04493 0 3.25 0Z" fill="#5E94FF"/>
<path fill-rule="evenodd" clip-rule="evenodd" d="M3.25 7.5C1.45507 7.5 0 8.95507 0 10.75C0 12.5449 1.45507 14 3.25 14C5.04493 14 6.5 12.5449 6.5 10.75C6.5 8.95507 5.04493 7.5 3.25 7.5Z" fill="#FFC44D"/>
<path fill-rule="evenodd" clip-rule="evenodd" d="M3.25 15C1.45507 15 0 16.4551 0 18.25C0 20.0449 1.45507 21.5 3.25 21.5C5.04493 21.5 6.5 20.0449 6.5 18.25C6.5 16.4551 5.04493 15 3.25 15Z" fill="#EE4D4D"/>
</svg>
