<svg width="14" height="14" viewBox="0 0 14 14" fill="none" xmlns="http://www.w3.org/2000/svg">
<path fill-rule="evenodd" clip-rule="evenodd" d="M13.5 1.75C13.5 0.783502 12.7165 0 11.75 0C10.7835 0 10 0.783502 10 1.75C10 2.7165 10.7835 3.5 11.75 3.5C12.7165 3.5 13.5 2.7165 13.5 1.75Z" fill="#FFC44D"/>
<path fill-rule="evenodd" clip-rule="evenodd" d="M13.5 6.75C13.5 5.7835 12.7165 5 11.75 5C10.7835 5 10 5.7835 10 6.75C10 7.7165 10.7835 8.5 11.75 8.5C12.7165 8.5 13.5 7.7165 13.5 6.75Z" fill="#8B98A6"/>
<path fill-rule="evenodd" clip-rule="evenodd" d="M8.5 1.75C8.5 0.783502 7.7165 0 6.75 0C5.7835 0 5 0.783502 5 1.75C5 2.7165 5.7835 3.5 6.75 3.5C7.7165 3.5 8.5 2.7165 8.5 1.75Z" fill="#5E94FF"/>
<path fill-rule="evenodd" clip-rule="evenodd" d="M8.5 6.75C8.5 5.7835 7.7165 5 6.75 5C5.7835 5 5 5.7835 5 6.75C5 7.7165 5.7835 8.5 6.75 8.5C7.7165 8.5 8.5 7.7165 8.5 6.75Z" fill="#5E94FF"/>
<path fill-rule="evenodd" clip-rule="evenodd" d="M8.5 11.75C8.5 10.7835 7.7165 10 6.75 10C5.7835 10 5 10.7835 5 11.75C5 12.7165 5.7835 13.5 6.75 13.5C7.7165 13.5 8.5 12.7165 8.5 11.75Z" fill="#FFC44D"/>
<path fill-rule="evenodd" clip-rule="evenodd" d="M3.5 6.75C3.5 5.7835 2.7165 5 1.75 5C0.783502 5 0 5.7835 0 6.75C0 7.7165 0.783502 8.5 1.75 8.5C2.7165 8.5 3.5 7.7165 3.5 6.75Z" fill="#EE4D4D"/>
<path fill-rule="evenodd" clip-rule="evenodd" d="M3.5 11.75C3.5 10.7835 2.7165 10 1.75 10C0.783502 10 0 10.7835 0 11.75C0 12.7165 0.783502 13.5 1.75 13.5C2.7165 13.5 3.5 12.7165 3.5 11.75Z" fill="#EE4D4D"/>
</svg>
