<svg width="23" height="18" viewBox="0 0 23 18" fill="none" xmlns="http://www.w3.org/2000/svg">
<path fill-rule="evenodd" clip-rule="evenodd" d="M2.73256 0C2.32798 0 2 0.307005 2 0.685714V15.3143C2 15.693 2.32798 16 2.73256 16H22.2674C22.672 16 23 15.693 23 15.3143V3.42857C23 3.04986 22.672 2.74286 22.2674 2.74286H10.9386L9.20255 0.305348C9.06668 0.114584 8.83796 0 8.59302 0H2.73256Z" fill="#FFC44D"/>
<path fill-rule="evenodd" clip-rule="evenodd" d="M1.73256 2C1.32798 2 1 2.28782 1 2.64286V16.3571C1 16.7122 1.32798 17 1.73256 17H21.2674C21.672 17 22 16.7122 22 16.3571V5.21429C22 4.85925 21.672 4.57143 21.2674 4.57143H9.93857L8.20255 2.28626C8.06668 2.10742 7.83796 2 7.59302 2H1.73256Z" fill="#8B98A6"/>
<path fill-rule="evenodd" clip-rule="evenodd" d="M0.732558 4C0.327977 4 0 4.26863 0 4.6V17.4C0 17.7314 0.327977 18 0.732558 18H20.2674C20.672 18 21 17.7314 21 17.4V7C21 6.66863 20.672 6.4 20.2674 6.4H8.93857L7.20255 4.26718C7.06668 4.10026 6.83796 4 6.59302 4H0.732558Z" fill="#FFC44D"/>
</svg>
