<svg width="19" height="24" viewBox="0 0 19 24" fill="none" xmlns="http://www.w3.org/2000/svg">
<path fill-rule="evenodd" clip-rule="evenodd" d="M2.75 0C1.23122 0 0 1.23122 0 2.75V18.75C0 20.2688 1.23122 21.5 2.75 21.5H14.75C16.2688 21.5 17.5 20.2688 17.5 18.75V7.66987C17.5 6.86708 17.1492 6.10437 16.5397 5.58191L10.7998 0.662044C10.3014 0.234828 9.66661 0 9.01015 0H2.75Z" fill="#ECEFF1"/>
<path fill-rule="evenodd" clip-rule="evenodd" d="M17.4948 7.5C17.449 6.76026 17.106 6.06737 16.5397 5.58191L10.7998 0.662044C10.3014 0.234828 9.66661 0 9.01015 0H9V1.25V4.75C9 6.26878 10.2312 7.5 11.75 7.5H16.25H17.4948Z" fill="#5E94FF"/>
<path fill-rule="evenodd" clip-rule="evenodd" d="M3.02588 16.9907C2.47359 16.9907 2.02588 16.6726 2.02588 16.2802L2.02588 8.70125C2.02588 8.30884 2.47359 7.99072 3.02588 7.99072C3.57816 7.99072 4.02588 8.30884 4.02588 8.70125L4.02588 16.2802C4.02588 16.6726 3.57816 16.9907 3.02588 16.9907Z" fill="#8BC94D"/>
<path fill-rule="evenodd" clip-rule="evenodd" d="M7.01538 16.9304C6.4631 16.9304 6.01538 16.5946 6.01538 16.1804L6.01538 11.6804C6.01538 11.2662 6.4631 10.9304 7.01538 10.9304C7.56767 10.9304 8.01538 11.2662 8.01538 11.6804V16.1804C8.01538 16.5946 7.56767 16.9304 7.01538 16.9304Z" fill="#8BC94D"/>
<path fill-rule="evenodd" clip-rule="evenodd" d="M11.0203 17.0513C10.468 17.0513 10.0203 16.7352 10.0203 16.3454V9.75715C10.0203 9.3673 10.468 9.05127 11.0203 9.05127C11.5725 9.05127 12.0203 9.3673 12.0203 9.75715V16.3454C12.0203 16.7352 11.5725 17.0513 11.0203 17.0513Z" fill="#8BC94D"/>
<path fill-rule="evenodd" clip-rule="evenodd" d="M14 17.8529C14 16.8296 15.0356 16 16.3131 16H16.6869C17.9644 16 19 16.8296 19 17.8529V18.0027C19 18.2818 18.7176 18.508 18.3692 18.508C18.0208 18.508 17.7383 18.2818 17.7383 18.0027V17.8529C17.7383 17.3878 17.2676 17.0107 16.6869 17.0107H16.3131C15.7324 17.0107 15.2617 17.3878 15.2617 17.8529V17.9185C15.2617 18.2375 15.4867 18.5291 15.8429 18.6718L17.7214 19.4242C18.505 19.7381 19 20.3797 19 21.0815V21.1471C19 22.1704 17.9644 23 16.6869 23H16.3131C15.0356 23 14 22.1704 14 21.1471V20.9973C14 20.7182 14.2824 20.492 14.6308 20.492C14.9792 20.492 15.2617 20.7182 15.2617 20.9973V21.1471C15.2617 21.6122 15.7324 21.9893 16.3131 21.9893H16.6869C17.2676 21.9893 17.7383 21.6122 17.7383 21.1471V21.0815C17.7383 20.7625 17.5133 20.4709 17.1571 20.3282L15.2786 19.5758C14.495 19.2619 14 18.6203 14 17.9185V17.8529Z" fill="#FFC44D"/>
<path fill-rule="evenodd" clip-rule="evenodd" d="M16.5 15C16.7761 15 17 15.1804 17 15.403V16.597C17 16.8196 16.7761 17 16.5 17C16.2239 17 16 16.8196 16 16.597V15.403C16 15.1804 16.2239 15 16.5 15Z" fill="#FFC44D"/>
<path fill-rule="evenodd" clip-rule="evenodd" d="M16.5 22C16.7761 22 17 22.1804 17 22.403V23.597C17 23.8196 16.7761 24 16.5 24C16.2239 24 16 23.8196 16 23.597V22.403C16 22.1804 16.2239 22 16.5 22Z" fill="#FFC44D"/>
</svg>
