<?xml version="1.0" encoding="UTF-8"?>
<svg viewBox="0 0 255.39999 255.40314" xmlns="http://www.w3.org/2000/svg">
 <defs>
  <filter id="b">
   <feGaussianBlur stdDeviation="3.83098"/>
  </filter>
  <radialGradient id="a" cx="-789" cy="95.362" r="409" gradientTransform="matrix(.81781 .98038 -.81622 .68087 -65.915 803.96)" gradientUnits="userSpaceOnUse">
   <stop stop-color="#0085f8" offset="0"/>
   <stop stop-color="#003b6e" offset="1"/>
  </radialGradient>
 </defs>
 <g transform="translate(794.7 -99.66)">
  <path d="m-667 99.66c-70.436 0-127.7 57.271-127.7 127.71s57.261 127.7 127.7 127.7 127.7-57.261 127.7-127.7-57.261-127.71-127.7-127.71z" filter="url(#b)"/>
  <path transform="matrix(.3 0 0 .3 -466.9 159.15)" d="m-258 227.36a409 409 0 1 1 -818 0 409 409 0 1 1 818 0z" fill="url(#a)" stroke="#fff" stroke-linecap="round" stroke-linejoin="round" stroke-width="33.333"/>
  <path d="m-689.39 249.32v-3.8965c-4e-5 -6.6308 0.75191-12.014 2.2559-16.15s3.7426-7.9125 6.7163-11.331 9.6557-9.4335 20.046-18.047c5.537-4.5116 8.3056-8.6474 8.3057-12.407s-1.1109-6.682-3.3325-8.7671c-2.2218-2.0848-5.5884-3.1273-10.1-3.1274-4.8536 1.2e-4 -8.8697 1.6066-12.048 4.8193s-1.1023 12.379-6.1011 16.816c-7.3614 6.5344-37.75 6.0207-39.785-4.9219-2.5574-13.748 6.6821-26.404 15.945-35.325s23.464-13.381 42.605-13.381c14.902 1.6e-4 26.934 3.1105 36.094 9.3311 12.441 8.4083 18.662 19.619 18.662 33.633-1.2e-4 5.8106-1.6066 11.416-4.8193 16.816s-9.7755 11.997-19.688 19.79c-6.9044 5.4688-11.262 9.8609-13.074 13.176s-2.7173 12.971-2.7173 12.971c0 10.806-38.965 10.605-38.965 0z"/>
  <path transform="matrix(.25123 0 0 .25123 -509.28 174.45)" d="m-577 463.34a61.518 61.518 0 1 1 -123.04 0 61.518 61.518 0 1 1 123.04 0z" stroke="#000" stroke-linecap="round" stroke-linejoin="round" stroke-width="39.804"/>
  <path d="m-689.39 249.32v-3.8965c-4e-5 -6.6308 0.75191-12.014 2.2559-16.15s3.7426-7.9125 6.7163-11.331 9.6557-9.4335 20.046-18.047c5.537-4.5116 8.3056-8.6474 8.3057-12.407s-1.1109-6.682-3.3325-8.7671c-2.2218-2.0848-5.5884-3.1273-10.1-3.1274-4.8536 1.2e-4 -8.8697 1.6066-12.048 4.8193s-1.1023 12.379-6.1011 16.816c-7.3614 6.5344-37.75 6.0207-39.785-4.9219-2.5574-13.748 6.6821-26.404 15.945-35.325s23.464-13.381 42.605-13.381c14.902 1.6e-4 26.934 3.1105 36.094 9.3311 12.441 8.4083 18.662 19.619 18.662 33.633-1.2e-4 5.8106-1.6066 11.416-4.8193 16.816s-9.7755 11.997-19.688 19.79c-6.9044 5.4688-11.262 9.8609-13.074 13.176s-2.7173 12.971-2.7173 12.971c0 10.806-38.965 10.605-38.965 0z" fill="#fff"/>
  <path transform="matrix(.25123 0 0 .25123 -509.28 174.45)" d="m-577 463.34a61.518 61.518 0 1 1 -123.04 0 61.518 61.518 0 1 1 123.04 0z" fill="#fff" stroke="#fff" stroke-linecap="round" stroke-linejoin="round" stroke-width="39.804"/>
 </g>
</svg>
