<svg width="21" height="20" viewBox="0 0 21 20" fill="none" xmlns="http://www.w3.org/2000/svg">
<path fill-rule="evenodd" clip-rule="evenodd" d="M11.9619 1.98583C11.0766 1.39567 9.92337 1.39567 9.03813 1.98583L2.3298 6.45805C1.59663 6.94683 1.15625 7.76969 1.15625 8.65085V17.2084C1.15625 18.6639 2.33617 19.8438 3.79167 19.8438H7.625C8.02195 19.8438 8.34375 19.522 8.34375 19.1251V14.3334C8.34375 13.6718 8.88008 13.1355 9.54167 13.1355H11.4583C12.1199 13.1355 12.6562 13.6718 12.6562 14.3334V19.1251C12.6562 19.522 12.978 19.8438 13.375 19.8438H17.2083C18.6638 19.8438 19.8437 18.6639 19.8437 17.2084V8.65085C19.8437 7.76969 19.4034 6.94683 18.6702 6.45805L11.9619 1.98583Z" fill="#5E94FF"/>
<path fill-rule="evenodd" clip-rule="evenodd" d="M11.3248 1.81701C10.8482 1.42014 10.1518 1.42014 9.67519 1.81701L1.26319 8.82139C0.938629 9.09164 0.453951 9.05057 0.180634 8.72964C-0.092683 8.40872 -0.0511391 7.92947 0.273425 7.65922L8.68543 0.654838C9.73401 -0.218279 11.266 -0.21828 12.3146 0.654837L20.7266 7.65922C21.0511 7.92947 21.0927 8.40872 20.8194 8.72964C20.5461 9.05057 20.0614 9.09164 19.7368 8.82139L11.3248 1.81701Z" fill="#8B98A6"/>
</svg>
