<svg width="23" height="23" viewBox="0 0 23 23" fill="none" xmlns="http://www.w3.org/2000/svg">
<path fill-rule="evenodd" clip-rule="evenodd" d="M8.46 2C8.75823 2 9 2.32798 9 2.73256V22.2674C9 22.672 8.75823 23 8.46 23H0.54C0.241766 23 -3.57628e-07 22.672 -3.57628e-07 22.2674V2.73256C-3.57628e-07 2.32798 0.241766 2 0.54 2H8.46Z" fill="#5E94FF"/>
<path fill-rule="evenodd" clip-rule="evenodd" d="M22.46 0C22.7582 0 23 0.359213 23 0.802326V22.1977C23 22.6408 22.7582 23 22.46 23H14.54C14.2418 23 14 22.6408 14 22.1977V0.802326C14 0.359213 14.2418 0 14.54 0H22.46Z" fill="#5E94FF"/>
<path fill-rule="evenodd" clip-rule="evenodd" d="M2.25 11C1.83579 11 1.5 11.3358 1.5 11.75V13.25C1.5 13.6642 1.83579 14 2.25 14C2.66421 14 3 13.6642 3 13.25V11.75C3 11.3358 2.66421 11 2.25 11Z" fill="#ECEFF1"/>
<path fill-rule="evenodd" clip-rule="evenodd" d="M6.75 11C6.33579 11 6 11.3358 6 11.75V13.25C6 13.6642 6.33579 14 6.75 14C7.16421 14 7.5 13.6642 7.5 13.25V11.75C7.5 11.3358 7.16421 11 6.75 11Z" fill="#ECEFF1"/>
<path fill-rule="evenodd" clip-rule="evenodd" d="M2.25 17C1.83579 17 1.5 17.3358 1.5 17.75V19.25C1.5 19.6642 1.83579 20 2.25 20C2.66421 20 3 19.6642 3 19.25V17.75C3 17.3358 2.66421 17 2.25 17Z" fill="#ECEFF1"/>
<path fill-rule="evenodd" clip-rule="evenodd" d="M6.75 17C6.33579 17 6 17.3358 6 17.75V19.25C6 19.6642 6.33579 20 6.75 20C7.16421 20 7.5 19.6642 7.5 19.25V17.75C7.5 17.3358 7.16421 17 6.75 17Z" fill="#ECEFF1"/>
<path fill-rule="evenodd" clip-rule="evenodd" d="M2.25 5C1.83579 5 1.5 5.33579 1.5 5.75V7.25C1.5 7.66421 1.83579 8 2.25 8C2.66421 8 3 7.66421 3 7.25V5.75C3 5.33579 2.66421 5 2.25 5Z" fill="#ECEFF1"/>
<path fill-rule="evenodd" clip-rule="evenodd" d="M6.75 5C6.33579 5 6 5.33579 6 5.75V7.25C6 7.66421 6.33579 8 6.75 8C7.16421 8 7.5 7.66421 7.5 7.25V5.75C7.5 5.33579 7.16421 5 6.75 5Z" fill="#ECEFF1"/>
<path fill-rule="evenodd" clip-rule="evenodd" d="M16.25 2C15.8358 2 15.5 2.33579 15.5 2.75V4.25C15.5 4.66421 15.8358 5 16.25 5C16.6642 5 17 4.66421 17 4.25V2.75C17 2.33579 16.6642 2 16.25 2Z" fill="#ECEFF1"/>
<path fill-rule="evenodd" clip-rule="evenodd" d="M20.75 7C20.3358 7 20 7.33579 20 7.75V9.25C20 9.66421 20.3358 10 20.75 10C21.1642 10 21.5 9.66421 21.5 9.25V7.75C21.5 7.33579 21.1642 7 20.75 7Z" fill="#ECEFF1"/>
<path fill-rule="evenodd" clip-rule="evenodd" d="M16.25 7C15.8358 7 15.5 7.33579 15.5 7.75V9.25C15.5 9.66421 15.8358 10 16.25 10C16.6642 10 17 9.66421 17 9.25V7.75C17 7.33579 16.6642 7 16.25 7Z" fill="#ECEFF1"/>
<path fill-rule="evenodd" clip-rule="evenodd" d="M20.75 17C20.3358 17 20 17.3358 20 17.75V19.25C20 19.6642 20.3358 20 20.75 20C21.1642 20 21.5 19.6642 21.5 19.25V17.75C21.5 17.3358 21.1642 17 20.75 17Z" fill="#ECEFF1"/>
<path fill-rule="evenodd" clip-rule="evenodd" d="M20.75 12C20.3358 12 20 12.3358 20 12.75V14.25C20 14.6642 20.3358 15 20.75 15C21.1642 15 21.5 14.6642 21.5 14.25V12.75C21.5 12.3358 21.1642 12 20.75 12Z" fill="#ECEFF1"/>
<path fill-rule="evenodd" clip-rule="evenodd" d="M20.75 2C20.3358 2 20 2.33579 20 2.75V4.25C20 4.66421 20.3358 5 20.75 5C21.1642 5 21.5 4.66421 21.5 4.25V2.75C21.5 2.33579 21.1642 2 20.75 2Z" fill="#ECEFF1"/>
<path fill-rule="evenodd" clip-rule="evenodd" d="M17.2857 9C17.6802 9 18 9.34822 18 9.77778V22.2222C18 22.6518 17.6802 23 17.2857 23H8.71429C8.3198 23 8 22.6518 8 22.2222V9.77778C8 9.34822 8.3198 9 8.71429 9H17.2857Z" fill="#7EA9FF"/>
<path fill-rule="evenodd" clip-rule="evenodd" d="M10.75 11.5C10.3358 11.5 10 11.8358 10 12.25V13.75C10 14.1642 10.3358 14.5 10.75 14.5C11.1642 14.5 11.5 14.1642 11.5 13.75V12.25C11.5 11.8358 11.1642 11.5 10.75 11.5Z" fill="#ECEFF1"/>
<path fill-rule="evenodd" clip-rule="evenodd" d="M15.25 11.5C14.8358 11.5 14.5 11.8358 14.5 12.25V13.75C14.5 14.1642 14.8358 14.5 15.25 14.5C15.6642 14.5 16 14.1642 16 13.75V12.25C16 11.8358 15.6642 11.5 15.25 11.5Z" fill="#ECEFF1"/>
<path fill-rule="evenodd" clip-rule="evenodd" d="M15.25 17.5C14.8358 17.5 14.5 17.8358 14.5 18.25V19.75C14.5 20.1642 14.8358 20.5 15.25 20.5C15.6642 20.5 16 20.1642 16 19.75V18.25C16 17.8358 15.6642 17.5 15.25 17.5Z" fill="#ECEFF1"/>
<path fill-rule="evenodd" clip-rule="evenodd" d="M10.75 17.5C10.3358 17.5 10 17.8358 10 18.25V19.75C10 20.1642 10.3358 20.5 10.75 20.5C11.1642 20.5 11.5 20.1642 11.5 19.75V18.25C11.5 17.8358 11.1642 17.5 10.75 17.5Z" fill="#ECEFF1"/>
</svg>
