<svg width="22" height="22" viewBox="0 0 22 22" fill="none" xmlns="http://www.w3.org/2000/svg">
<path fill-rule="evenodd" clip-rule="evenodd" d="M10.75 0C4.81294 0 0 4.81294 0 10.75C0 16.6871 4.81294 21.5 10.75 21.5C16.6871 21.5 21.5 16.6871 21.5 10.75C21.5 4.81294 16.6871 0 10.75 0Z" fill="#5E94FF"/>
<path fill-rule="evenodd" clip-rule="evenodd" d="M10.75 5C11.1642 5 11.5 5.33579 11.5 5.75V16.75C11.5 17.1642 11.1642 17.5 10.75 17.5C10.3358 17.5 10 17.1642 10 16.75V5.75C10 5.33579 10.3358 5 10.75 5Z" fill="#F9F9F9"/>
<path fill-rule="evenodd" clip-rule="evenodd" d="M10.75 4C10.9779 4 11.1934 4.10357 11.3357 4.28148L15.3357 9.28148C15.5944 9.60493 15.542 10.0769 15.2185 10.3357C14.8951 10.5944 14.4231 10.542 14.1644 10.2185L10.75 5.95059L7.33568 10.2185C7.07692 10.542 6.60495 10.5944 6.28151 10.3357C5.95806 10.0769 5.90562 9.60493 6.16438 9.28148L10.1644 4.28148C10.3067 4.10357 10.5222 4 10.75 4Z" fill="#F9F9F9"/>
</svg>
