<svg width="21" height="20" viewBox="0 0 21 20" fill="none" xmlns="http://www.w3.org/2000/svg">
<path fill-rule="evenodd" clip-rule="evenodd" d="M14.5 4C12.567 4 11 5.567 11 7.5C11 9.433 12.567 11 14.5 11C16.433 11 18 9.433 18 7.5C18 5.567 16.433 4 14.5 4Z" fill="#8B98A6"/>
<path fill-rule="evenodd" clip-rule="evenodd" d="M12.2903 12C10.4731 12 9 13.3431 9 15V17.4706C9 17.763 9.25996 18 9.58065 18H20.4194C20.74 18 21 17.763 21 17.4706V15C21 13.3431 19.5269 12 17.7097 12H12.2903Z" fill="#8B98A6"/>
<path fill-rule="evenodd" clip-rule="evenodd" d="M7.75 0C5.12665 0 3 2.12665 3 4.75C3 7.37335 5.12665 9.5 7.75 9.5C10.3734 9.5 12.5 7.37335 12.5 4.75C12.5 2.12665 10.3734 0 7.75 0Z" fill="#5E94FF"/>
<path fill-rule="evenodd" clip-rule="evenodd" d="M4.25 11C1.90279 11 0 12.9028 0 15.25V18.75C0 19.1642 0.335786 19.5 0.75 19.5H14.75C15.1642 19.5 15.5 19.1642 15.5 18.75V15.25C15.5 12.9028 13.5972 11 11.25 11H4.25Z" fill="#5E94FF"/>
</svg>
