<svg width="18" height="22" viewBox="0 0 18 22" fill="none" xmlns="http://www.w3.org/2000/svg">
<path fill-rule="evenodd" clip-rule="evenodd" d="M2.75 0C1.23122 0 0 1.23122 0 2.75V20.75C0 21.0031 0.127662 21.2391 0.339488 21.3777C0.551315 21.5162 0.818728 21.5386 1.05061 21.4371L4.75 19.8186L8.44939 21.4371C8.64103 21.521 8.85897 21.521 9.05061 21.4371L12.75 19.8186L16.4494 21.4371C16.6813 21.5386 16.9487 21.5162 17.1605 21.3777C17.3723 21.2391 17.5 21.0031 17.5 20.75V2.75C17.5 1.23122 16.2688 0 14.75 0H2.75Z" fill="#ECEFF1"/>
<path fill-rule="evenodd" clip-rule="evenodd" d="M2.75 12.5C2.75 12.0858 3.29565 11.75 3.96875 11.75H14.5312C15.2043 11.75 15.75 12.0858 15.75 12.5C15.75 12.9142 15.2043 13.25 14.5312 13.25H3.96875C3.29565 13.25 2.75 12.9142 2.75 12.5Z" fill="#8B98A6"/>
<path fill-rule="evenodd" clip-rule="evenodd" d="M2.75 15.5C2.75 15.0858 3.29565 14.75 3.96875 14.75H14.5312C15.2043 14.75 15.75 15.0858 15.75 15.5C15.75 15.9142 15.2043 16.25 14.5312 16.25H3.96875C3.29565 16.25 2.75 15.9142 2.75 15.5Z" fill="#8B98A6"/>
<path fill-rule="evenodd" clip-rule="evenodd" d="M10.75 5.5C10.75 5.08579 11.2297 4.75 11.8214 4.75H14.6786C15.2703 4.75 15.75 5.08579 15.75 5.5C15.75 5.91421 15.2703 6.25 14.6786 6.25H11.8214C11.2297 6.25 10.75 5.91421 10.75 5.5Z" fill="#8B98A6"/>
<path fill-rule="evenodd" clip-rule="evenodd" d="M10.75 8.5C10.75 8.08579 11.2297 7.75 11.8214 7.75H14.6786C15.2703 7.75 15.75 8.08579 15.75 8.5C15.75 8.91421 15.2703 9.25 14.6786 9.25H11.8214C11.2297 9.25 10.75 8.91421 10.75 8.5Z" fill="#8B98A6"/>
<path fill-rule="evenodd" clip-rule="evenodd" d="M6.25 3.75C5.42157 3.75 4.75 4.42157 4.75 5.25C4.75 6.07843 5.42157 6.75 6.25 6.75C7.07843 6.75 7.75 6.07843 7.75 5.25C7.75 4.42157 7.07843 3.75 6.25 3.75Z" fill="#5E94FF"/>
<path fill-rule="evenodd" clip-rule="evenodd" d="M5.12097 7.75C4.3638 7.75 3.75 8.42157 3.75 9.25V10.4853C3.75 10.6315 3.85832 10.75 3.99194 10.75H8.50806C8.64168 10.75 8.75 10.6315 8.75 10.4853V9.25C8.75 8.42157 8.1362 7.75 7.37903 7.75H5.12097Z" fill="#5E94FF"/>
</svg>
